HIERARCHY
ROOT Hips
{
	OFFSET 0.000000 0.000000 0.000000
	CHANNELS 6 Xposition Yposition Zposition Xrotation Yrotation Zrotation
	JOINT LeftUpLeg_virtual
	{
		OFFSET 0.000000 0.000000 0.000000
		CHANNELS 3 Xrotation Yrotation Zrotation
		JOINT LeftUpLeg
		{
			OFFSET 11.394100 -6.187798 -0.413800
			CHANNELS 3 Xrotation Yrotation Zrotation
			JOINT LeftLeg
			{
				OFFSET 0.430247 -32.302673 3.732800
				CHANNELS 3 Xrotation Yrotation Zrotation
				JOINT LeftFoot
				{
					OFFSET -0.430247 -48.264931 -6.423300
					CHANNELS 3 Xrotation Yrotation Zrotation
					JOINT LeftToeBase
					{
						OFFSET 4.230900 -16.068199 23.438400
						CHANNELS 3 Xrotation Yrotation Zrotation
						JOINT LeftToe_End
						{
							OFFSET 4.510700 0.695400 19.974600
							CHANNELS 3 Xrotation Yrotation Zrotation
							End Site
							{
								OFFSET 0 0 0
							}
						}
					}
				}
			}
		}
	}
	JOINT RightUpLeg_virtual
	{
		OFFSET 0.000000 0.000000 0.000000
		CHANNELS 3 Xrotation Yrotation Zrotation
		JOINT RightUpLeg
		{
			OFFSET -11.333700 -6.187798 -0.413800
			CHANNELS 3 Xrotation Yrotation Zrotation
			JOINT RightLeg
			{
				OFFSET -0.430392 -32.302628 3.733000
				CHANNELS 3 Xrotation Yrotation Zrotation
				JOINT RightFoot
				{
					OFFSET 0.430392 -48.264973 -6.423500
					CHANNELS 3 Xrotation Yrotation Zrotation
					JOINT RightToeBase
					{
						OFFSET -4.230900 -16.068199 23.438400
						CHANNELS 3 Xrotation Yrotation Zrotation
						JOINT RightToe_End
						{
							OFFSET -4.510700 0.695400 19.974600
							CHANNELS 3 Xrotation Yrotation Zrotation
							End Site
							{
								OFFSET 0 0 0
							}
						}
					}
				}
			}
		}
	}
	JOINT Spine_virtual
	{
		OFFSET 0.000000 0.000000 0.000000
		CHANNELS 3 Xrotation Yrotation Zrotation
		JOINT Spine
		{
			OFFSET -0.002400 12.777504 0.315300
			CHANNELS 3 Xrotation Yrotation Zrotation
			JOINT Spine1
			{
				OFFSET -0.002067 5.816869 0.032633
				CHANNELS 3 Xrotation Yrotation Zrotation
				JOINT Spine1_split
				{
					OFFSET -0.002067 5.816869 0.032633
					CHANNELS 3 Xrotation Yrotation Zrotation
					JOINT Spine2
					{
						OFFSET -0.002067 5.816869 0.032633
						CHANNELS 3 Xrotation Yrotation Zrotation
						JOINT Neck_virtual
						{
							OFFSET 0.000000 0.000000 0.000000
							CHANNELS 3 Xrotation Yrotation Zrotation
							JOINT Neck
							{
								OFFSET -0.003700 21.199493 -0.826900
								CHANNELS 3 Xrotation Yrotation Zrotation
								JOINT Head
								{
									OFFSET 0.000000 20.442200 4.834800
									CHANNELS 3 Xrotation Yrotation Zrotation
									JOINT HeadTop_End
									{
										OFFSET 0.000000 34.668396 4.968400
										CHANNELS 3 Xrotation Yrotation Zrotation
										End Site
										{
											OFFSET 0 0 0
										}
									}
								}
							}
						}
						JOINT LeftShoulder_virtual
						{
							OFFSET 0.000000 0.000000 0.000000
							CHANNELS 3 Xrotation Yrotation Zrotation
							JOINT LeftShoulder
							{
								OFFSET 3.288150 8.794197 -1.372250
								CHANNELS 3 Xrotation Yrotation Zrotation
								JOINT LeftShoulder_split
								{
									OFFSET 3.288150 8.794197 -1.372250
									CHANNELS 3 Xrotation Yrotation Zrotation
									JOINT LeftArm
									{
										OFFSET 11.953299 -2.279007 -0.146200
										CHANNELS 3 Xrotation Yrotation Zrotation
										JOINT LeftForeArm
										{
											OFFSET 18.448900 0.000000 0.000000
											CHANNELS 3 Xrotation Yrotation Zrotation
											JOINT LeftHand
											{
												OFFSET 29.527798 0.000000 0.000000
												CHANNELS 3 Xrotation Yrotation Zrotation
												End Site
												{
													OFFSET 0 0 0
												}
											}
										}
									}
								}
							}
						}
						JOINT RightShoulder_virtual
						{
							OFFSET 0.000000 0.000000 0.000000
							CHANNELS 3 Xrotation Yrotation Zrotation
							JOINT RightShoulder
							{
								OFFSET -3.249400 8.794197 -1.372250
								CHANNELS 3 Xrotation Yrotation Zrotation
								JOINT RightShoulder_split
								{
									OFFSET -3.249400 8.794197 -1.372250
									CHANNELS 3 Xrotation Yrotation Zrotation
									JOINT RightArm
									{
										OFFSET -11.953299 -2.279007 -0.146200
										CHANNELS 3 Xrotation Yrotation Zrotation
										JOINT RightForeArm
										{
											OFFSET -18.448900 0.000000 0.000000
											CHANNELS 3 Xrotation Yrotation Zrotation
											JOINT RightHand
											{
												OFFSET -29.527802 0.000000 0.000000
												CHANNELS 3 Xrotation Yrotation Zrotation
												End Site
												{
													OFFSET 0 0 0
												}
											}
										}
									}
								}
							}
						}
					}
				}
			}
		}
	}
}
MOTION
Frames: 4
Frame Time: 0.03333333
0.018462 84.130302 0.470333 0.000000 0.000000 0.000000 -7.436775 -51.524898 -1.250492 -36.912712 10.108591 19.736634 58.121358 -2.733231 3.922693 -19.489711 -8.427838 -15.902914 -2.911313 0.268491 1.069429 0.000000 0.000000 0.000000 -8.058754 -48.663742 -0.544513 -27.485538 -5.724487 -28.577599 56.985515 -7.104825 -8.307142 -18.022173 -4.751905 23.839957 -0.491422 1.190311 1.485130 0.000000 0.000000 0.000000 -6.563683 -47.391182 -0.226384 11.020052 8.195412 -1.117112 1.492046 1.707269 -0.797444 0.734573 0.798482 0.387329 0.000000 0.000000 0.000000 2.308631 0.935378 -0.636922 -1.470615 10.558758 3.165452 8.780169 20.370624 -4.510218 0.000000 0.000000 0.000000 2.664206 0.861258 -0.856882 0.669369 1.503977 -5.171406 -1.515092 -1.202162 -1.826794 -53.296871 2.997683 -50.179511 -172.358171 -75.214767 -168.308620 0.000000 0.000000 0.000000 3.284129 1.191464 -0.820780 2.288418 11.432805 -7.138626 0.282114 -0.171356 1.637801 -53.468408 30.260316 85.670270 -179.019449 70.143338 177.348771 0.000000 0.000000 0.000000 
0.060199 84.261086 0.664032 0.000000 0.000000 0.000000 -7.148590 -51.542872 -0.967576 -36.522336 9.891558 19.553426 58.360367 -2.969115 4.029964 -19.065701 -8.120220 -15.660376 -3.151120 0.222046 0.983040 0.000000 0.000000 0.000000 -8.177553 -48.538978 -0.469821 -27.152963 -6.188951 -28.623593 56.695949 -7.444683 -8.128484 -18.509263 -5.038410 23.297275 0.125317 1.256420 1.214630 0.000000 0.000000 0.000000 -6.512188 -47.263936 -0.286943 10.962798 8.220256 -1.271124 1.457818 1.595976 -0.764313 0.894605 1.456532 0.679953 0.000000 0.000000 0.000000 2.157577 0.918514 -0.624610 -1.682519 11.023822 3.052772 8.362430 20.637705 -4.459672 0.000000 0.000000 0.000000 2.702670 0.800862 -0.765143 0.665610 0.887055 -5.442369 -0.749377 -1.230839 -0.714406 -53.965017 4.295268 -50.431996 -176.936870 -75.528423 -173.116896 0.000000 0.000000 0.000000 3.254662 1.145659 -0.748957 2.263279 11.706495 -7.044850 0.254385 -0.673100 1.245452 -53.602706 30.174123 85.200456 -179.149797 69.829265 177.529853 0.000000 0.000000 0.000000 
0.051175 84.520210 0.763222 0.000000 0.000000 0.000000 -6.860651 -51.484959 -0.653243 -35.918554 9.804517 19.584751 58.259779 -3.716704 3.978064 -18.725069 -7.795249 -15.437295 -3.428100 0.127955 0.823060 0.000000 0.000000 0.000000 -8.217530 -48.603332 -0.355748 -26.609994 -6.884488 -28.656540 55.837162 -7.586895 -7.895454 -19.004296 -5.346149 22.563238 -0.093010 1.352546 0.696364 0.000000 0.000000 0.000000 -6.236781 -47.443894 -0.214561 10.803297 8.284697 -1.458188 1.428061 1.493963 -0.797970 0.643872 1.455038 0.643093 0.000000 0.000000 0.000000 1.999007 0.985370 -0.689577 -1.859006 11.751637 3.094313 8.019127 21.166766 -4.017709 0.000000 0.000000 0.000000 2.807492 0.833780 -0.721059 0.567021 -0.083725 -5.701043 -0.049929 -0.102004 0.929695 -55.157039 6.479803 -49.939662 179.343788 -74.241848 -177.132268 0.000000 0.000000 0.000000 3.121457 1.197231 -0.733975 2.262964 11.983514 -6.494370 0.045151 -1.211757 0.861436 -54.044343 30.839674 84.555652 -179.494844 69.518130 177.936796 0.000000 0.000000 0.000000 
0.089598 84.854019 0.900963 0.000000 0.000000 0.000000 -6.633899 -51.634953 -0.431252 -35.178527 10.108836 19.892183 57.786160 -4.712245 3.682770 -18.583736 -7.292585 -15.216784 -3.612826 -0.001033 0.598063 0.000000 0.000000 0.000000 -8.092407 -49.176139 -0.231636 -26.055217 -7.613110 -28.621083 54.540997 -7.409147 -7.666961 -19.116538 -5.580500 21.718325 -1.141514 1.413269 0.229222 0.000000 0.000000 0.000000 -5.793848 -48.257342 0.039789 10.491504 8.389425 -1.638892 1.402022 1.476485 -0.900394 0.288288 1.170881 0.506836 0.000000 0.000000 0.000000 1.854762 1.160029 -0.807006 -1.994833 12.504377 3.271647 7.840692 22.197227 -3.415638 0.000000 0.000000 0.000000 2.834995 0.990794 -0.773129 0.455682 -1.002010 -5.708112 0.530736 1.442101 2.347406 -56.004775 8.515923 -49.122065 178.342605 -72.218964 -178.590035 0.000000 0.000000 0.000000 2.935044 1.353311 -0.821174 2.251342 12.207122 -5.560261 -0.125617 -1.330851 0.490382 -54.785395 32.277384 83.997837 -179.855519 69.218708 178.368164 0.000000 0.000000 0.000000 
